<?xml version="1.0" encoding="UTF-8" standalone="no"?>
<svg
   xmlns:dc="http://purl.org/dc/elements/1.1/"
   xmlns:cc="http://creativecommons.org/ns#"
   xmlns:rdf="http://www.w3.org/1999/02/22-rdf-syntax-ns#"
   xmlns:svg="http://www.w3.org/2000/svg"
   xmlns="http://www.w3.org/2000/svg"
   xmlns:sodipodi="http://sodipodi.sourceforge.net/DTD/sodipodi-0.dtd"
   xmlns:inkscape="http://www.inkscape.org/namespaces/inkscape"
   width="1792"
   height="1792"
   viewBox="0 0 1792 1792"
   id="svg2"
   version="1.1"
   inkscape:version="0.91 r13725"
   sodipodi:docname="open.svg">
  <metadata
     id="metadata10">
    <rdf:RDF>
      <cc:Work
         rdf:about="">
        <dc:format>image/svg+xml</dc:format>
        <dc:type
           rdf:resource="http://purl.org/dc/dcmitype/StillImage" />
      </cc:Work>
    </rdf:RDF>
  </metadata>
  <defs
     id="defs8" />
  <sodipodi:namedview
     pagecolor="#ffffff"
     bordercolor="#666666"
     borderopacity="1"
     objecttolerance="10"
     gridtolerance="10"
     guidetolerance="10"
     inkscape:pageopacity="0"
     inkscape:pageshadow="2"
     inkscape:window-width="1280"
     inkscape:window-height="742"
     id="namedview6"
     showgrid="false"
     inkscape:zoom="0.13169643"
     inkscape:cx="896"
     inkscape:cy="896"
     inkscape:window-x="0"
     inkscape:window-y="0"
     inkscape:window-maximized="1"
     inkscape:current-layer="svg2" />
  <path
     d="m 1640.7769,977.96274 q 0,-30.96533 -46.8903,-30.96533 l -962.57892,0 q -35.38893,0 -75.64385,19.02156 -40.25491,19.02157 -63.25771,46.44793 l -260.10867,321.1546 q -15.92502,21.2333 -15.92502,35.3889 0,30.9653 46.89035,30.9653 l 962.57892,0 q 35.389,0 76.0862,-19.4639 40.6973,-19.4639 62.8154,-46.8903 l 260.1086,-321.1546 q 15.925,-19.46386 15.925,-34.50416 z M 631.30768,833.75283 l 679.46742,0 0,-141.55574 q 0,-35.38892 -24.7722,-60.16118 -24.7722,-24.77225 -60.1612,-24.77225 l -509.60059,0 q -35.38893,0 -60.16118,-24.77226 -24.77225,-24.77225 -24.77225,-60.16119 l 0,-56.62229 q 0,-35.38893 -24.77225,-60.16119 -24.77226,-24.77224 -60.16119,-24.77224 l -283.11146,0 q -35.38894,0 -60.1612,24.77224 -24.77225,24.77226 -24.77225,60.16119 l 0,754.66898 226.48917,-278.68782 q 38.92783,-46.89034 102.62791,-77.41329 63.70008,-30.52296 123.86127,-30.52296 z M 1754.0215,977.96274 q 0,54.85276 -40.6972,106.16676 l -260.9934,321.1546 q -38.0432,46.8903 -102.6279,77.4133 -64.5849,30.5229 -123.8613,30.5229 l -962.57892,0 q -81.39456,0 -139.78629,-58.3917 -58.391744,-58.3918 -58.391744,-139.7863 l 0,-849.33438 q 0,-81.39454 58.391744,-139.78628 58.39173,-58.39174 139.78629,-58.39174 l 283.11146,0 q 81.39454,0 139.78628,58.39174 58.39174,58.39174 58.39174,139.78628 l 0,28.31115 481.28944,0 q 81.3945,0 139.7863,58.39174 58.3917,58.39174 58.3917,139.78628 l 0,141.55574 169.8669,0 q 47.775,0 87.5876,21.67572 39.8126,21.67572 59.2764,62.37299 13.2709,28.31115 13.2709,60.1612 z"
     id="path4"
     inkscape:connector-curvature="0" />
</svg>
