<?xml version="1.0" encoding="UTF-8" standalone="no"?>
<svg
   xmlns:dc="http://purl.org/dc/elements/1.1/"
   xmlns:cc="http://creativecommons.org/ns#"
   xmlns:rdf="http://www.w3.org/1999/02/22-rdf-syntax-ns#"
   xmlns:svg="http://www.w3.org/2000/svg"
   xmlns="http://www.w3.org/2000/svg"
   xmlns:sodipodi="http://sodipodi.sourceforge.net/DTD/sodipodi-0.dtd"
   xmlns:inkscape="http://www.inkscape.org/namespaces/inkscape"
   width="1792"
   height="1792"
   viewBox="0 0 1792 1792"
   id="svg2"
   version="1.1"
   inkscape:version="0.91 r13725"
   sodipodi:docname="picture.svg">
  <metadata
     id="metadata10">
    <rdf:RDF>
      <cc:Work
         rdf:about="">
        <dc:format>image/svg+xml</dc:format>
        <dc:type
           rdf:resource="http://purl.org/dc/dcmitype/StillImage" />
      </cc:Work>
    </rdf:RDF>
  </metadata>
  <defs
     id="defs8" />
  <sodipodi:namedview
     pagecolor="#ffffff"
     bordercolor="#666666"
     borderopacity="1"
     objecttolerance="10"
     gridtolerance="10"
     guidetolerance="10"
     inkscape:pageopacity="0"
     inkscape:pageshadow="2"
     inkscape:window-width="1280"
     inkscape:window-height="742"
     id="namedview6"
     showgrid="false"
     inkscape:zoom="0.13169643"
     inkscape:cx="896"
     inkscape:cy="896"
     inkscape:window-x="0"
     inkscape:window-y="0"
     inkscape:window-maximized="1"
     inkscape:current-layer="svg2" />
  <path
     d="m 621.55933,617.00338 q 0,68.61017 -48.02712,116.63729 -48.02712,48.02712 -116.63729,48.02712 -68.61017,0 -116.63729,-48.02712 -48.02712,-48.02712 -48.02712,-116.63729 0,-68.61016 48.02712,-116.63728 48.02712,-48.02712 116.63729,-48.02712 68.61017,0 116.63729,48.02712 48.02712,48.02712 48.02712,116.63728 z m 878.21017,329.32881 0,384.21701 -1207.53899,0 0,-164.6644 274.44068,-274.44071 137.22034,137.22031 439.10507,-439.10508 z m 82.3322,-603.76948 -1372.20339,0 q -11.14916,0 -19.29661,8.14745 -8.14746,8.14746 -8.14746,19.29661 l 0,1042.87463 q 0,11.1491 8.14746,19.2966 8.14745,8.1474 19.29661,8.1474 l 1372.20339,0 q 11.1492,0 19.2966,-8.1474 8.1475,-8.1475 8.1475,-19.2966 l 0,-1042.87463 q 0,-11.14915 -8.1475,-19.29661 -8.1474,-8.14745 -19.2966,-8.14745 z m 137.2204,27.44406 0,1042.87463 q 0,56.6034 -40.3085,96.9118 -40.3085,40.3085 -96.9119,40.3085 l -1372.20339,0 q -56.60339,0 -96.91187,-40.3085 -40.308474,-40.3084 -40.308474,-96.9118 l 0,-1042.87463 q 0,-56.60339 40.308474,-96.91186 40.30848,-40.30847 96.91187,-40.30847 l 1372.20339,0 q 56.6034,0 96.9119,40.30847 40.3085,40.30847 40.3085,96.91186 z"
     id="path4"
     inkscape:connector-curvature="0" />
</svg>
