<?xml version="1.0" encoding="UTF-8" standalone="no"?>
<svg
   xmlns:dc="http://purl.org/dc/elements/1.1/"
   xmlns:cc="http://creativecommons.org/ns#"
   xmlns:rdf="http://www.w3.org/1999/02/22-rdf-syntax-ns#"
   xmlns:svg="http://www.w3.org/2000/svg"
   xmlns="http://www.w3.org/2000/svg"
   xmlns:sodipodi="http://sodipodi.sourceforge.net/DTD/sodipodi-0.dtd"
   xmlns:inkscape="http://www.inkscape.org/namespaces/inkscape"
   width="1792"
   height="1792"
   viewBox="0 0 1792 1792"
   id="svg2"
   version="1.1"
   inkscape:version="0.91 r13725"
   sodipodi:docname="quote.svg">
  <metadata
     id="metadata10">
    <rdf:RDF>
      <cc:Work
         rdf:about="">
        <dc:format>image/svg+xml</dc:format>
        <dc:type
           rdf:resource="http://purl.org/dc/dcmitype/StillImage" />
      </cc:Work>
    </rdf:RDF>
  </metadata>
  <defs
     id="defs8" />
  <sodipodi:namedview
     pagecolor="#ffffff"
     bordercolor="#666666"
     borderopacity="1"
     objecttolerance="10"
     gridtolerance="10"
     guidetolerance="10"
     inkscape:pageopacity="0"
     inkscape:pageshadow="2"
     inkscape:window-width="1280"
     inkscape:window-height="742"
     id="namedview6"
     showgrid="false"
     inkscape:zoom="0.13169643"
     inkscape:cx="896"
     inkscape:cy="896"
     inkscape:window-x="0"
     inkscape:window-y="0"
     inkscape:window-maximized="1"
     inkscape:current-layer="svg2" />
  <path
     style="fill:#000000"
     d="m 242.00508,1526.9401 c -58.07359,-18.2883 -111.72759,-67.5211 -130.01747,-119.3035 -8.31355,-23.5374 -10.40795,-110.4507 -10.40795,-431.90779 0,-453.11131 -0.85706,-444.77342 58.14809,-565.69491 59.46382,-121.86148 189.80248,-227.01912 324.48681,-261.797 26.69326,-6.89267 83.68867,-14.52296 126.65647,-16.9562 l 78.12327,-4.42408 23.30963,23.30963 c 22.91866,22.91866 23.30963,24.58702 23.30963,99.46864 0,81.60695 -7.36758,108.5492 -33.10991,121.07848 -8.93532,4.34899 -48.70704,9.33647 -88.38162,11.08329 -58.09901,2.55803 -80.47311,7.12427 -114.98307,23.46643 -84.37069,39.95365 -141.34396,127.26603 -148.08873,226.94815 -4.22191,62.39637 7.93391,95.33731 45.30605,122.77442 19.63052,14.41192 34.9095,16.04349 182.82318,19.52281 160.79793,3.78239 161.5214,3.87538 193.14621,24.82437 42.43935,28.11278 74.45339,74.01569 85.02073,121.90589 5.75049,26.06061 7.81054,112.22017 6.11398,255.71047 -2.42117,204.7762 -3.44109,218.0391 -18.97804,246.7796 -19.35591,35.805 -56.58449,72.4313 -93.68234,92.1669 -24.05311,12.7959 -48.56382,14.2759 -258.16949,15.588 -127.37627,0.7975 -240.15771,-1.2471 -250.62543,-4.5436 z"
     id="path3338"
     inkscape:connector-curvature="0" />
  <path
     style="fill:#000000"
     d="m 1563.6097,131.57273 c 58.0736,18.2883 111.7276,67.5211 130.0175,119.3035 8.3135,23.5374 10.4079,110.4507 10.4079,431.90779 0,453.11128 0.8571,444.77338 -58.148,565.69488 -59.4639,121.8615 -189.8025,227.0191 -324.4869,261.797 -26.6932,6.8927 -83.6886,14.523 -126.6564,16.9562 l -78.1233,4.4241 -23.3096,-23.3096 c -22.9187,-22.9187 -23.3097,-24.587 -23.3097,-99.4687 0,-81.6069 7.3676,-108.5492 33.11,-121.0784 8.9353,-4.349 48.707,-9.3365 88.3816,-11.0833 58.099,-2.5581 80.4731,-7.1243 114.983,-23.4665 84.3707,-39.9536 141.344,-127.266 148.0888,-226.9481 4.2219,-62.39638 -7.9339,-95.33732 -45.3061,-122.77443 -19.6305,-14.41192 -34.9095,-16.04349 -182.8232,-19.52281 -160.7979,-3.78239 -161.5214,-3.87538 -193.1462,-24.82437 -42.4393,-28.11278 -74.45343,-74.01569 -85.02073,-121.90589 -5.7505,-26.06061 -7.8105,-112.22017 -6.114,-255.71047 2.4212,-204.7762 3.4411,-218.0391 18.9781,-246.7796 19.35593,-35.805 56.58443,-72.4313 93.68233,-92.1669 24.0531,-12.7959 48.5638,-14.2759 258.1695,-15.588 127.3763,-0.7975 240.1577,1.2471 250.6254,4.5436 z"
     id="path3340"
     inkscape:connector-curvature="0" />
</svg>
